<svg xmlns="http://www.w3.org/2000/svg" width="549.506" height="549.506" viewBox="0 0 549.506 549.506">
  <g id="Behance" transform="translate(-294 1068.207)">
    <rect id="rect1146-8-3-4" width="549.506" height="549.506" rx="131.531" transform="translate(294 -1068.207)" fill="#0071b9"/>
    <path id="rect1140" d="M-139.71,611.3c2.88,32.034-2.87,51.917-35.57,68.045-12.23,6.036-27.58,7.927-41.97,7.927H-320.86v-217.8h113.99c14.14,0,57.81,8.395,58.06,50.371.17,29.021-16.26,42.285-29.98,48.639,0,0,36.21,10.789,39.08,42.823Zm-46.66,9.217c0-30.567-34.52-29.772-34.52-29.772h-52.03V650.29h52.03s34.52.8,34.52-29.771Zm-8.57-88.529c0-25.627-28.94-24.964-28.94-24.964h-49.04v49.929h49.04S-194.94,557.617-194.94,531.99ZM33.5,607.767c0,3.985-.16,7.821-.48,11.488H-81.21c-1.06,25.185,17.32,40.173,38.22,40.173,14.82,0,27.83-7.856,35.33-21.173H29.73c-10.26,37.442-40.4,53.022-75.99,53.022-46.61,0-79.75-37.389-79.75-83.509s35.71-83.509,79.75-83.509S33.5,561.647,33.5,607.767ZM-81.21,591.375h70.26C-13.74,570.626-28.4,557.4-46.08,557.4S-78.41,570.625-81.21,591.375Zm-9.45-107.768H-1.85V505.7H-90.66Z" transform="translate(712.438 -1373.826)" fill="#fff" fill-rule="evenodd"/>
  </g>
</svg>
