<svg xmlns="http://www.w3.org/2000/svg" width="549.506" height="549.506" viewBox="0 0 549.506 549.506">
  <g id="Codepen" transform="translate(-1540 -505)">
    <rect id="rect1146-8-3-4" width="549.506" height="549.506" rx="131.531" transform="translate(1540 505)" fill="#262626"/>
    <path id="codepen-2" data-name="codepen" d="M405.327,128.335c-.742-4.453-1.349-7.927-6.072-10.812C206.146,2.98,208.878-5.554,196.346,2.019,49.992,93,9.258,113.29,3.405,120.374c-5.313,5.448-2.884,13.8-2.884,139.962-.354,14.354,130.6,92.127,194.29,141.75,5.617,4,12.684,3.356,16.917-.489,189.314-134.193,193.919-128.8,193.6-141.26,0,0-.2-133.7,0-132Zm-25.3,109.483L314.65,198.029l65.376-45.49ZM291.02,183.642,215.574,137.73V35.348l153.927,93.7Zm-88.1,61.277-65.376-45.49,65.376-39.789L268.3,199.429ZM190.274,35.331V137.78c-29.332,18.2-54.126,33.4-75.075,46.114L36.347,129.043Zm-98.789,162.9c-31.609,19.009-52.254,31.086-65.663,39.131V152.539Zm22.433,15.585,76.356,53.114V368.115L36.347,261.027ZM215.574,368.132V266.947l76.356-53.114,77.571,47.21Z" transform="translate(1612.033 577.011)" fill="#fff"/>
  </g>
</svg>
