<svg xmlns="http://www.w3.org/2000/svg" width="549.506" height="549.506" viewBox="0 0 549.506 549.506">
  <g id="Discord" transform="translate(-1169.454 1274.871)">
    <rect id="rect1146-8-3-4-3" width="549.506" height="549.506" rx="131.531" transform="translate(1169.454 -1274.871)" fill="#5c6bc0"/>
    <path id="rect1060" d="M669.83,427.553c18.76,0,34.03-15.827,34.03-35.347,0-19.388-15.17-35.216-33.92-35.216l-.11.08c-18.75,0-34.03,15.775-34.03,35.3,0,19.362,15.28,35.189,34.03,35.189Zm121.82,0c18.75,0,34.03-15.827,34.03-35.347,0-19.388-15.2-35.216-34.03-35.216v.08c-18.68,0-33.98,15.775-34.03,35.3,0,19.362,15.27,35.189,34.03,35.189ZM786.9,240.582l-.87.317.32-.317ZM585.61,274.057c48.35-35.189,93.16-33.5,93.16-33.5l3.62,3.561c-59.17,14.113-85.99,40.544-85.99,40.544,2.74-.581,122.21-69.507,266.97,1.741,0,0-26.88-24.717-82.41-40.544l4.91-4.827c7.68.03,48.3,1.451,91.77,33.237,0,0,48.64,83.092,48.64,185.176-1.61-1.952-30.17,43.947-103.69,45.529,0,0-12.45-14.086-21.31-26.378,42.99-12.345,59.08-37.035,59.08-37.035-83.69,52.7-157.05,44.474-244.81,8.863a2.028,2.028,0,0,1-1.61-.792v-.158a2.126,2.126,0,0,0-1.61-.791h-1.59a89.528,89.528,0,0,0-8.96-5.276s16.06,24.69,57.34,37.035c-10.84,12.372-21.57,26.432-21.57,26.432-73.49-1.741-100.3-47.64-100.3-47.64,0-102.243,48.36-185.176,48.36-185.176Z" transform="translate(712.438 -1373.826)" fill="#fff" fill-rule="evenodd"/>
  </g>
</svg>
