<svg xmlns="http://www.w3.org/2000/svg" width="550.506" height="550.506" viewBox="0 0 550.506 550.506">
  <g id="Group_2" data-name="Group 2" transform="translate(-448 -1548)">
    <rect id="rect1146-8-3-4" width="549.506" height="549.506" rx="131.531" transform="translate(448.5 1548.5)" stroke="#000" stroke-width="1"/>
    <path id="iconmonstr-github-1" d="M229.684,448.042c126.824,0,229.684-102.841,229.684-229.684,0-101.482-65.8-187.575-157.085-217.951-11.465-2.125-15.178,5-15.178,11.044V54.21c63.89-13.9,77.193,27.1,77.193,27.1,10.451,26.548,25.514,33.61,25.514,33.61,20.844,14.26-1.589,13.953-1.589,13.953-23.064-1.608-35.2-23.677-35.2-23.677-20.48-35.1-53.727-24.959-66.838-19.083-2.048,14.834-8,24.978-14.585,30.7,51.009,5.838,104.64,25.533,104.64,113.521,0,25.093-8.977,45.573-23.657,61.651,2.373,5.8,10.24,29.17-2.239,60.79,0,0-19.293,6.163-63.182-23.543a217.7,217.7,0,0,1-115.014,0c-43.851,29.706-63.106,23.543-63.106,23.543-12.5-31.639-4.632-55.009-2.259-60.79-14.738-16.078-23.638-36.577-23.638-61.651,0-88.218,53.727-107.645,104.87-113.33-8.23-7.12-15.753-21.093-15.753-42.53V11.45c0-6.106-3.675-13.283-15.331-11.025C65.728,30.84,0,116.914,0,218.357,0,345.2,102.841,448.042,229.684,448.042Z" transform="translate(952.368 2047.042) rotate(180)" fill="#fff"/>
  </g>
</svg>
