<svg xmlns="http://www.w3.org/2000/svg" xmlns:xlink="http://www.w3.org/1999/xlink" width="549.506" height="549.506" viewBox="0 0 549.506 549.506">
  <defs>
    <linearGradient id="linear-gradient" x1="0.5" x2="0.5" y2="1" gradientUnits="objectBoundingBox">
      <stop offset="0" stop-color="#fd5"/>
      <stop offset="0.274" stop-color="#ff543e"/>
      <stop offset="0.593" stop-color="#d8408b"/>
      <stop offset="1" stop-color="#c837ab"/>
    </linearGradient>
  </defs>
  <g id="Instagram" transform="translate(259 -1476)">
    <rect id="rect1146" width="549.506" height="549.506" rx="131.531" transform="translate(-259 1476)" fill="url(#linear-gradient)"/>
    <path id="path11-7" d="M1601.99,600.47c-77.46,0-151.02-6.89-179.12,65.216-11.6,29.782-9.92,68.459-9.92,123.84,0,48.6-1.55,94.273,9.92,123.819,28.04,72.149,102.19,65.238,179.08,65.238,74.17,0,150.65,7.722,179.09-65.238,11.63-30.08,9.92-68.181,9.92-123.819,0-73.856,4.07-121.536-31.74-157.333-36.27-36.267-85.32-31.723-157.32-31.723Zm-16.94,34.07c161.58-.256,182.14-18.219,170.8,231.317-4.04,88.256-71.24,78.571-153.84,78.571-150.61,0-154.94-4.31-154.94-154.987,0-152.427,11.94-154.816,137.98-154.944Zm117.85,31.381a22.677,22.677,0,1,0,22.67,22.677A22.677,22.677,0,0,0,1702.9,665.921Zm-100.91,26.517a97.078,97.078,0,1,0,97.04,97.088A97.086,97.086,0,0,0,1601.99,692.438Zm0,34.07c83.31,0,83.41,126.037,0,126.037C1518.7,852.545,1518.58,726.508,1601.99,726.508Z" transform="translate(-1585.865 961.712)" fill="#fff"/>
  </g>
</svg>
