<svg xmlns="http://www.w3.org/2000/svg" width="549.506" height="549.506" viewBox="0 0 549.506 549.506">
  <g id="Linkedin" transform="translate(-3062.818 49.506)">
    <rect id="rect1146-8" width="549.506" height="549.506" rx="131.531" transform="translate(3062.818 -49.506)" fill="#0084b1"/>
    <path id="rect1135" d="M2784.14,1612.89a72.418,72.418,0,0,0-72.42-72.421h-11.47a64.418,64.418,0,0,0-56.36,33.264,5.39,5.39,0,0,0-.6-.07v-23.418a4.361,4.361,0,0,0-4.36-4.364h-55.8a4.361,4.361,0,0,0-4.36,4.364v203.076a4.361,4.361,0,0,0,4.36,4.363l57.01.02a4.369,4.369,0,0,0,4.37-4.363V1636.018c0-20.281,16.17-37.119,36.45-37.348a36.874,36.874,0,0,1,37.3,36.877v117.809a4.366,4.366,0,0,0,4.36,4.362l57.16.01a4.361,4.361,0,0,0,4.36-4.364Zm-257.45,144.788h-44.72a10.505,10.505,0,0,1-10.51-10.508V1556.387a10.506,10.506,0,0,1,10.51-10.509h44.72a10.512,10.512,0,0,1,10.51,10.509V1747.17A10.512,10.512,0,0,1,2526.69,1757.678Zm-22.18-317.256a38.306,38.306,0,0,1,38.05,38.234c0,21.965-18.28,38.521-38.3,38.043-20.31.411-38.16-16.55-38.16-38.188A38.333,38.333,0,0,1,2504.51,1440.422Z" transform="translate(712.438 -1373.826)" fill="#fff" fill-rule="evenodd"/>
  </g>
</svg>
