<svg xmlns="http://www.w3.org/2000/svg" width="550.506" height="550.506" viewBox="0 0 550.506 550.506">
  <g id="Mail" transform="translate(-1539.5 -1547.5)">
    <rect id="rect1146-8-3-4" width="549.506" height="549.506" rx="131.531" transform="translate(1540 1548)" fill="#ececec" stroke="#000" stroke-width="1"/>
    <g id="alternate_email_black_24dp" transform="translate(1593.5 1601.5)">
      <path id="Path_10" data-name="Path 10" d="M0,0H442.548V442.548H0Z" fill="none"/>
      <path id="Path_11" data-name="Path 11" d="M186.395,1.95C84.609,1.95,2,84.559,2,186.345S84.609,370.74,186.395,370.74h92.2V333.861h-92.2c-80.027,0-147.516-67.488-147.516-147.516S106.367,38.829,186.395,38.829s147.516,67.489,147.516,147.516v26.368c0,14.567-13.092,28.95-27.659,28.95s-27.659-14.383-27.659-28.95V186.345a92.231,92.231,0,1,0-26.922,65.091c11.986,16.411,32.638,27.106,54.581,27.106,36.326,0,64.538-29.5,64.538-65.829V186.345C370.79,84.559,288.181,1.95,186.395,1.95Zm0,239.713a55.318,55.318,0,1,1,55.318-55.318A55.244,55.244,0,0,1,186.395,241.663Z" transform="translate(34.879 34.007)" fill="#747474"/>
    </g>
  </g>
</svg>
