<svg xmlns="http://www.w3.org/2000/svg" width="549.506" height="549.506" viewBox="0 0 549.506 549.506">
  <g id="Stackoverflow" transform="translate(669 -1548)">
    <rect id="rect1146-8-3-4" width="549.506" height="549.506" rx="131.531" transform="translate(-669 1548)" fill="#2d2d2d"/>
    <g id="stack-overflow" transform="translate(-552.159 1635.659)">
      <g id="Group_1" data-name="Group 1" transform="translate(67.717 122.78)">
        <path id="Path_1" data-name="Path 1" d="M6.444,45.553,167.625,79.792l6.751-32.57L13.195,12.734Z" transform="translate(-2.874 63.023)" fill="#ff9800"/>
        <path id="Path_2" data-name="Path 2" d="M6.215,17.571H170.951V50.733H6.215Z" transform="translate(-6.215 133.601)" fill="#ff9800"/>
        <path id="Path_3" data-name="Path 3" d="M7.8,38.371l149.238,70.566,13.829-30.309L21.551,7.875Z" transform="translate(16.912 -7.875)" fill="#ff9800"/>
        <path id="Path_4" data-name="Path 4" d="M17.4,14.373l-.016-.016-.016.016Z" transform="translate(156.564 86.705)" fill="#ff9800"/>
      </g>
      <path id="Path_5" data-name="Path 5" d="M2,15.429V149.061H298.107V15.429H265.163v100.22H34.944V15.429Z" transform="translate(0 225.127)" fill="#757575"/>
      <path id="Path_6" data-name="Path 6" d="M10.453,29.138,136.882,136.3l20.986-25.725L31.439,3.413Z" transform="translate(123.339 49.8)" fill="#ff9800"/>
      <path id="Path_7" data-name="Path 7" d="M138.627,133.881,40.372,0,14.007,20.05l98.255,133.881Z" transform="translate(175.196)" fill="#ff9800"/>
    </g>
  </g>
</svg>
