<svg xmlns="http://www.w3.org/2000/svg" width="549.506" height="549.506" viewBox="0 0 549.506 549.506">
  <g id="Twitter" transform="translate(-1067.391 71.816)">
    <rect id="rect1146-8-3" width="549.506" height="549.506" rx="131.531" transform="translate(1067.391 -71.816)" fill="#50abf1"/>
    <g id="g6" transform="translate(1114.278 -29.181)">
      <path id="path4" d="M60.377,337.822A195.173,195.173,0,0,0,165.252,368.19c108.349,0,196.18-87.841,196.18-196.18q0-4.058-.161-8.067c3.919-3.084,28.157-22.511,34.1-35,0,0-19.683,8.18-38.947,10.107-.038,0-.085.009-.123.009a.889.889,0,0,0,.1-.066c1.775-1.186,26.591-18.079,29.951-38.207a238.985,238.985,0,0,1-33.415,13.932c-3.227,1.072-6.605,2.126-10.088,3.1a68.838,68.838,0,0,0-117.307,62.615c-5.314-.218-86.237-4.755-141.289-71.423,0,0-32.9,44.917,19.607,91.105,0,0-15.962-.636-29.733-8.864,0,0-5.058,54.416,54.407,68.329,0,0-11.7,4.432-30.368,1.272,0,0,10.439,43.968,63.271,48.077,0,0-41.777,37.74-101.081,28.885Z" fill="#fff"/>
    </g>
  </g>
</svg>
